<svg width="800" height="870" viewBox="0 0 800 870" fill="none" xmlns="http://www.w3.org/2000/svg">
<path d="M738.667 148.059V98.3098C738.667 79.3914 723.532 64 704.929 64H656.29C653.185 64 650.667 66.5602 650.667 69.7184C650.667 72.8767 653.185 75.4369 656.29 75.4369H704.929C717.331 75.4369 727.421 85.6977 727.421 98.3101V148.059C727.421 151.218 729.939 153.778 733.044 153.778C736.15 153.778 738.667 151.217 738.667 148.059Z" fill="url(#paint0_linear)"/>
<path d="M738.667 728.329V777.586C738.667 796.317 723.532 811.556 704.929 811.556H656.29C653.185 811.556 650.667 809.021 650.667 805.894C650.667 802.767 653.185 800.232 656.29 800.232H704.929C717.331 800.232 727.421 790.073 727.421 777.585V728.329C727.421 725.202 729.939 722.667 733.044 722.667C736.15 722.667 738.667 725.202 738.667 728.329Z" fill="url(#paint1_linear)"/>
<path d="M63.1113 148.059V98.3098C63.1113 79.3914 78.2462 64 96.8492 64H145.488C148.594 64 151.111 66.5602 151.111 69.7184C151.111 72.8767 148.594 75.4369 145.488 75.4369H96.8492C84.4471 75.4369 74.3573 85.6977 74.3573 98.3101V148.059C74.3573 151.218 71.8398 153.778 68.7342 153.778C65.6286 153.778 63.1113 151.217 63.1113 148.059Z" fill="url(#paint2_linear)"/>
<path d="M71.1113 728.329V777.586C71.1113 796.317 86.2462 811.556 104.849 811.556H153.488C156.594 811.556 159.111 809.021 159.111 805.894C159.111 802.767 156.594 800.232 153.488 800.232H104.849C92.4471 800.232 82.3573 790.073 82.3573 777.585V728.329C82.3573 725.202 79.8398 722.667 76.7342 722.667C73.6286 722.667 71.1113 725.202 71.1113 728.329Z" fill="url(#paint3_linear)"/>
<defs>
<linearGradient id="paint0_linear" x1="694.667" y1="64" x2="694.667" y2="153.778" gradientUnits="userSpaceOnUse">
<stop stop-color="#C5E862"/>
<stop offset="1" stop-color="#EEFFBC"/>
</linearGradient>
<linearGradient id="paint1_linear" x1="694.667" y1="811.556" x2="694.667" y2="722.667" gradientUnits="userSpaceOnUse">
<stop stop-color="#FE5DDB"/>
<stop offset="1" stop-color="#FFB8F0"/>
</linearGradient>
<linearGradient id="paint2_linear" x1="107.111" y1="64" x2="107.111" y2="153.778" gradientUnits="userSpaceOnUse">
<stop stop-color="#7862FF"/>
<stop offset="1" stop-color="#BCB1FF"/>
</linearGradient>
<linearGradient id="paint3_linear" x1="115.111" y1="811.556" x2="115.111" y2="722.667" gradientUnits="userSpaceOnUse">
<stop stop-color="#8AB7FF"/>
<stop offset="1" stop-color="#B8D3FF"/>
</linearGradient>
</defs>
</svg>
